<?xml version="1.0" encoding="UTF-8"?>
<svg xmlns="http://www.w3.org/2000/svg" xmlns:xlink="http://www.w3.org/1999/xlink" width="389.21pt" height="121.66pt" viewBox="0 0 389.21 121.66" version="1.1">
<defs>
<clipPath id="clip1">
  <path d="M 167 108 L 177 108 L 177 121.660156 L 167 121.660156 Z M 167 108 "/>
</clipPath>
<clipPath id="clip2">
  <path d="M 227 108 L 238 108 L 238 121.660156 L 227 121.660156 Z M 227 108 "/>
</clipPath>
<clipPath id="clip3">
  <path d="M 380 108 L 389.210938 108 L 389.210938 119 L 380 119 Z M 380 108 "/>
</clipPath>
</defs>
<g id="surface1">
<path style=" stroke:none;fill-rule:nonzero;fill:rgb(8.599854%,47.099304%,72.198486%);fill-opacity:1;" d="M 277.476563 3.023438 C 267.472656 9.433594 260.640625 18.542969 257.007813 29.8125 C 252.308594 44.386719 249.695313 62.234375 241.335938 75.945313 L 307.449219 75.945313 C 307.453125 75.703125 307.46875 75.460938 307.46875 75.21875 C 307.46875 71.355469 306.503906 67.59375 304.59375 63.980469 C 301.984375 58.988281 297.085938 55.398438 292.082031 51.410156 C 284.65625 45.425781 276.980469 37.214844 276.929688 26.015625 C 276.929688 22.609375 277.921875 19.378906 279.699219 16.546875 C 284.378906 9.074219 291.691406 3.460938 299.695313 0.261719 L 282.761719 0.261719 C 280.914063 1.046875 279.140625 1.957031 277.476563 3.023438 "/>
<path style=" stroke:none;fill-rule:nonzero;fill:rgb(96.099854%,73.699951%,11.799622%);fill-opacity:1;" d="M 306.820313 80.710938 C 307.199219 79.101563 307.398438 77.515625 307.449219 75.945313 L 241.335938 75.945313 C 239.09375 79.628906 236.445313 83.011719 233.222656 85.953125 C 231.28125 87.722656 228.976563 89.316406 226.484375 90.363281 L 303.019531 90.363281 C 304.824219 87.398438 306.042969 84.003906 306.820313 80.710938 "/>
<path style=" stroke:none;fill-rule:nonzero;fill:rgb(96.099854%,73.699951%,11.799622%);fill-opacity:1;" d="M 323.113281 2.507813 C 323.363281 2.441406 323.613281 2.375 323.863281 2.308594 C 323.613281 2.375 323.363281 2.441406 323.113281 2.507813 "/>
<path style=" stroke:none;fill-rule:nonzero;fill:rgb(19.198608%,29.798889%,48.199463%);fill-opacity:1;" d="M 336.230469 49.6875 C 336.640625 50.734375 337.027344 51.8125 337.390625 52.925781 C 337.390625 52.925781 337.390625 52.925781 337.390625 52.929688 C 337.027344 51.8125 336.640625 50.730469 336.230469 49.6875 "/>
<path style=" stroke:none;fill-rule:nonzero;fill:rgb(19.198608%,29.798889%,48.199463%);fill-opacity:1;" d="M 297.851563 18.3125 C 299.140625 18.554688 300.535156 18.859375 302.007813 19.25 C 300.539063 18.859375 299.144531 18.550781 297.855469 18.308594 C 297.855469 18.308594 297.851563 18.3125 297.851563 18.3125 "/>
<path style=" stroke:none;fill-rule:nonzero;fill:rgb(96.099854%,73.699951%,11.799622%);fill-opacity:1;" d="M 368.761719 75.949219 L 312.597656 75.949219 C 312.546875 77.917969 312.300781 79.90625 311.828125 81.894531 C 311.132813 84.820313 310.230469 87.699219 308.96875 90.363281 L 374.480469 90.363281 C 374.226563 85.523438 372.113281 80.605469 368.761719 75.949219 "/>
<path style=" stroke:none;fill-rule:nonzero;fill:rgb(8.599854%,47.099304%,72.198486%);fill-opacity:1;" d="M 368.761719 75.949219 C 362.105469 66.703125 350.535156 58.511719 338.8125 54.011719 C 338.609375 53.933594 338.40625 53.863281 338.203125 53.785156 C 337.796875 53.632813 337.390625 53.46875 336.980469 53.328125 C 336.777344 53.253906 336.570313 53.195313 336.363281 53.125 C 334.816406 52.601563 333.269531 52.132813 331.734375 51.75 C 331.269531 51.632813 330.761719 51.5 330.226563 51.351563 C 329.3125 51.101563 328.304688 50.804688 327.226563 50.46875 C 315.648438 46.855469 295.914063 38.394531 294.792969 26.734375 C 294.710938 25.867188 294.730469 24.984375 294.863281 24.082031 C 295.097656 22.492188 295.6875 20.847656 296.695313 19.15625 C 296.703125 19.136719 296.714844 19.117188 296.722656 19.097656 C 297.105469 18.46875 297.507813 17.863281 297.929688 17.273438 C 303.769531 9.132813 313.617188 5.082031 323.113281 2.507813 C 323.363281 2.441406 323.613281 2.375 323.863281 2.308594 C 324.863281 2.046875 325.855469 1.792969 326.835938 1.558594 C 328.613281 1.132813 330.464844 0.6875 332.351563 0.261719 L 321.632813 0.261719 C 318.136719 0.886719 315.214844 1.417969 315.207031 1.421875 L 315.101563 1.441406 L 314.988281 1.449219 C 310.9375 1.839844 306.714844 3.144531 302.640625 4.640625 C 295.164063 7.371094 288.246094 12.566406 284.0625 19.277344 C 282.757813 21.375 282.085938 23.601563 282.078125 26.03125 L 282.078125 26.242188 C 282.128906 34.695313 288.28125 41.765625 295.308594 47.398438 C 300.101563 51.28125 305.738281 55.1875 309.144531 61.570313 C 311.414063 65.859375 312.621094 70.484375 312.621094 75.21875 C 312.621094 75.460938 312.605469 75.703125 312.597656 75.949219 "/>
<path style=" stroke:none;fill-rule:nonzero;fill:rgb(19.198608%,29.798889%,48.199463%);fill-opacity:1;" d="M 338.203125 53.785156 C 337.796875 53.632813 337.390625 53.472656 336.980469 53.328125 C 337.390625 53.472656 337.796875 53.632813 338.203125 53.785156 "/>
<path style=" stroke:none;fill-rule:nonzero;fill:rgb(19.198608%,29.798889%,48.199463%);fill-opacity:1;" d="M 318.742188 45.570313 C 313.433594 36.269531 304.722656 33.285156 298.96875 32.394531 L 296.359375 31.988281 L 298.003906 34.054688 C 298.355469 34.496094 298.730469 34.925781 299.117188 35.351563 L 299.347656 35.597656 L 299.675781 35.660156 C 304.554688 36.632813 310.980469 39.183594 315.347656 45.921875 L 315.511719 46.171875 L 315.785156 46.300781 C 316.34375 46.550781 316.890625 46.792969 317.445313 47.027344 L 320.269531 48.234375 "/>
<path style=" stroke:none;fill-rule:nonzero;fill:rgb(19.198608%,29.798889%,48.199463%);fill-opacity:1;" d="M 362.5625 63.183594 C 362.5625 65.210938 362.476563 67.066406 362.34375 68.71875 C 362.664063 69.023438 362.988281 69.324219 363.296875 69.632813 C 363.472656 67.75 363.59375 65.585938 363.59375 63.183594 C 363.617188 46.75 357.867188 19.503906 324.605469 2.113281 C 324.359375 2.175781 324.109375 2.242188 323.863281 2.308594 C 323.613281 2.375 323.363281 2.441406 323.113281 2.507813 C 356.90625 19.695313 362.542969 46.796875 362.5625 63.183594 "/>
<path style=" stroke:none;fill-rule:nonzero;fill:rgb(19.198608%,29.798889%,48.199463%);fill-opacity:1;" d="M 305.265625 10.1875 C 304.910156 10.433594 304.550781 10.675781 304.203125 10.933594 C 336.421875 20.832031 344.570313 45.335938 346.640625 57.578125 C 347.023438 57.785156 347.410156 57.984375 347.792969 58.195313 C 345.902344 46.085938 337.996094 20.597656 305.265625 10.1875 "/>
<path style=" stroke:none;fill-rule:nonzero;fill:rgb(19.198608%,29.798889%,48.199463%);fill-opacity:1;" d="M 337.257813 0.328125 C 337.289063 0.351563 339.398438 1.738281 342.59375 4.472656 C 352.1875 12.679688 371.355469 32.851563 371.347656 62.863281 C 371.347656 67.523438 370.886719 72.421875 369.855469 77.554688 C 370.128906 77.972656 370.378906 78.394531 370.632813 78.820313 C 371.828125 73.238281 372.378906 67.910156 372.378906 62.863281 C 372.355469 25.695313 343.546875 3.550781 338.589844 0.00390625 L 336.832031 0.00390625 "/>
<path style=" stroke:none;fill-rule:nonzero;fill:rgb(19.198608%,29.798889%,48.199463%);fill-opacity:1;" d="M 294.792969 26.734375 L 295.136719 26.769531 C 316.929688 29.085938 324.402344 41.1875 327.152344 50.230469 L 327.226563 50.46875 C 328.304688 50.804688 329.3125 51.101563 330.226563 51.351563 L 329.890625 50.167969 C 327.15625 40.328125 318.773438 26.476563 295.238281 24.121094 L 294.863281 24.082031 C 294.730469 24.984375 294.710938 25.867188 294.792969 26.734375 "/>
<path style=" stroke:none;fill-rule:nonzero;fill:rgb(19.198608%,29.798889%,48.199463%);fill-opacity:1;" d="M 296.695313 19.15625 L 296.90625 19.191406 C 308.066406 21.132813 328.117188 28.039063 336.363281 53.125 C 336.570313 53.195313 336.777344 53.253906 336.980469 53.328125 C 328.734375 27.707031 308.296875 20.636719 296.996094 18.6875 C 297.199219 18.363281 297.40625 18.050781 297.621094 17.738281 C 309.359375 19.875 330.082031 27.410156 338.203125 53.785156 C 338.40625 53.863281 338.609375 53.9375 338.8125 54.011719 L 338.695313 53.632813 C 330.554688 27.183594 309.796875 19.464844 297.929688 17.273438 C 297.507813 17.863281 297.101563 18.46875 296.722656 19.097656 C 296.714844 19.117188 296.707031 19.136719 296.695313 19.15625 "/>
<path style=" stroke:none;fill-rule:nonzero;fill:rgb(19.198608%,29.798889%,48.199463%);fill-opacity:1;" d="M 336.230469 49.6875 C 336.640625 50.730469 337.027344 51.8125 337.390625 52.929688 C 337.390625 52.925781 337.390625 52.925781 337.390625 52.925781 C 337.027344 51.8125 336.640625 50.734375 336.230469 49.6875 M 336.132813 49.433594 C 336.15625 49.496094 336.179688 49.558594 336.207031 49.621094 C 336.179688 49.558594 336.15625 49.496094 336.132813 49.433594 M 336.03125 49.183594 C 336.050781 49.226563 336.066406 49.269531 336.085938 49.316406 C 336.066406 49.269531 336.050781 49.226563 336.03125 49.183594 M 335.933594 48.933594 C 335.941406 48.960938 335.953125 48.984375 335.960938 49.007813 C 335.953125 48.984375 335.941406 48.960938 335.933594 48.933594 M 335.832031 48.683594 C 335.835938 48.691406 335.835938 48.699219 335.839844 48.707031 C 335.835938 48.699219 335.835938 48.691406 335.832031 48.683594 M 297.851563 18.3125 C 297.851563 18.3125 297.855469 18.308594 297.855469 18.308594 C 299.144531 18.550781 300.539063 18.859375 302.007813 19.25 C 300.535156 18.859375 299.140625 18.554688 297.851563 18.3125 M 297.621094 17.738281 L 297.527344 18.246094 L 297.621094 17.738281 C 297.40625 18.050781 297.199219 18.363281 296.996094 18.6875 C 308.296875 20.636719 328.734375 27.707031 336.980469 53.328125 C 337.390625 53.472656 337.796875 53.632813 338.203125 53.785156 C 330.082031 27.410156 309.359375 19.875 297.621094 17.738281 "/>
<path style=" stroke:none;fill-rule:nonzero;fill:rgb(19.198608%,29.798889%,48.199463%);fill-opacity:1;" d="M 314.371094 5.382813 C 313.917969 5.566406 313.46875 5.757813 313.019531 5.949219 C 313.664063 6.207031 314.339844 6.484375 315.074219 6.804688 C 327.648438 12.300781 352.351563 27.367188 353.742188 61.847656 C 354.09375 62.085938 354.453125 62.320313 354.804688 62.566406 C 353.679688 25.925781 326.792969 10.546875 314.371094 5.382813 "/>
<path style=" stroke:none;fill-rule:nonzero;fill:rgb(19.198608%,29.798889%,48.199463%);fill-opacity:1;" d="M 380.019531 63.863281 C 380.027344 44.8125 373.835938 20.457031 349.003906 0.00390625 L 347.363281 0.00390625 C 372.757813 20.417969 378.980469 44.773438 378.988281 63.863281 C 378.992188 73.105469 377.523438 81.105469 376.058594 86.789063 C 375.71875 88.117188 375.378906 89.304688 375.054688 90.363281 L 376.132813 90.363281 C 377.847656 84.652344 380.019531 75.195313 380.019531 63.863281 "/>
<path style=" stroke:none;fill-rule:nonzero;fill:rgb(19.198608%,29.798889%,48.199463%);fill-opacity:1;" d="M 388.066406 66.230469 C 388.0625 28.480469 368.371094 5.25 363.421875 0.00390625 L 361.988281 0.00390625 C 362.59375 0.613281 363.859375 1.9375 365.546875 3.992188 C 372.703125 12.71875 387.039063 34.203125 387.039063 66.230469 C 387.039063 73.703125 386.234375 81.765625 384.398438 90.363281 L 385.453125 90.363281 C 387.269531 81.777344 388.070313 73.710938 388.066406 66.230469 "/>
<path style=" stroke:none;fill-rule:nonzero;fill:rgb(13.299561%,11.799622%,12.199402%);fill-opacity:1;" d="M 79.375 59.117188 C 80.582031 50.597656 82.039063 39.152344 84.3125 29.433594 L 83.816406 29.433594 C 79.914063 39.015625 74.71875 50.066406 71.171875 56.988281 L 55.054688 89.070313 L 39.546875 89.070313 L 36.703125 57.519531 C 36.027344 50.332031 35.355469 39.152344 35.710938 29.433594 L 35.210938 29.433594 C 32.871094 39.152344 29.863281 50.464844 27.355469 59.386719 L 19.066406 90.535156 L 0.222656 90.535156 L 27.140625 0.8125 L 49.859375 0.8125 L 52.113281 33.292969 C 52.949219 44.609375 53.734375 54.59375 53.667969 64.710938 L 54 64.710938 C 57.6875 54.726563 62.226563 44.609375 67.496094 33.292969 L 82.789063 0.8125 L 105.507813 0.8125 L 94.617188 90.535156 L 75.105469 90.535156 "/>
<path style=" stroke:none;fill-rule:nonzero;fill:rgb(13.299561%,11.799622%,12.199402%);fill-opacity:1;" d="M 134.003906 16.921875 L 114.363281 16.921875 L 117.519531 0.8125 L 178.433594 0.8125 L 175.421875 16.921875 L 155.621094 16.921875 L 141.640625 90.535156 L 119.792969 90.535156 "/>
<path style=" stroke:none;fill-rule:nonzero;fill:rgb(13.299561%,11.799622%,12.199402%);fill-opacity:1;" d="M 225.097656 89.203125 C 221.714844 90.402344 215.375 91.332031 207.703125 91.332031 C 179.015625 91.332031 168.863281 72.429688 173.605469 47.003906 C 179.910156 13.191406 205.578125 0.015625 227.140625 0.015625 C 234.714844 0.015625 239.769531 1.210938 241.695313 2.410156 L 235.460938 17.054688 C 233.152344 16.121094 230.492188 15.324219 225.703125 15.324219 C 213.496094 15.324219 200.882813 23.84375 196.8125 46.074219 C 192.886719 67.503906 201.503906 75.890625 214.816406 75.890625 C 218.476563 75.890625 222.757813 75.226563 225.539063 74.558594 "/>
<path style=" stroke:none;fill-rule:nonzero;fill:rgb(13.299561%,11.799622%,12.199402%);fill-opacity:1;" d="M 0 117.792969 L 0 104.625 L 3.976563 104.625 L 6.367188 113.605469 L 8.726563 104.625 L 12.714844 104.625 L 12.714844 117.792969 L 10.246094 117.792969 L 10.246094 107.429688 L 7.632813 117.792969 L 5.074219 117.792969 L 2.46875 107.429688 L 2.46875 117.792969 "/>
<path style=" stroke:none;fill-rule:nonzero;fill:rgb(13.299561%,11.799622%,12.199402%);fill-opacity:1;" d="M 15.335938 108.253906 L 17.859375 108.253906 L 17.859375 117.792969 L 15.335938 117.792969 Z M 15.335938 104.625 L 17.859375 104.625 L 17.859375 106.960938 L 15.335938 106.960938 Z M 15.335938 104.625 "/>
<path style=" stroke:none;fill-rule:nonzero;fill:rgb(13.299561%,11.799622%,12.199402%);fill-opacity:1;" d="M 29.121094 117.792969 L 26.597656 117.792969 L 26.597656 112.925781 C 26.597656 111.894531 26.542969 111.226563 26.433594 110.925781 C 26.328125 110.625 26.152344 110.390625 25.910156 110.222656 C 25.667969 110.054688 25.375 109.96875 25.035156 109.96875 C 24.597656 109.96875 24.207031 110.089844 23.859375 110.328125 C 23.511719 110.566406 23.273438 110.886719 23.144531 111.28125 C 23.015625 111.675781 22.953125 112.40625 22.953125 113.472656 L 22.953125 117.792969 L 20.429688 117.792969 L 20.429688 108.253906 L 22.769531 108.253906 L 22.769531 109.65625 C 23.601563 108.578125 24.652344 108.039063 25.914063 108.039063 C 26.472656 108.039063 26.980469 108.140625 27.441406 108.339844 C 27.902344 108.539063 28.25 108.796875 28.488281 109.105469 C 28.722656 109.417969 28.886719 109.773438 28.980469 110.167969 C 29.074219 110.5625 29.121094 111.128906 29.121094 111.863281 "/>
<path style=" stroke:none;fill-rule:nonzero;fill:rgb(13.299561%,11.799622%,12.199402%);fill-opacity:1;" d="M 31.679688 108.253906 L 34.203125 108.253906 L 34.203125 117.792969 L 31.679688 117.792969 Z M 31.679688 104.625 L 34.203125 104.625 L 34.203125 106.960938 L 31.679688 106.960938 Z M 31.679688 104.625 "/>
<path style=" stroke:none;fill-rule:nonzero;fill:rgb(13.299561%,11.799622%,12.199402%);fill-opacity:1;" d="M 35.898438 115.070313 L 38.433594 114.683594 C 38.539063 115.175781 38.757813 115.546875 39.089844 115.800781 C 39.417969 116.054688 39.878906 116.183594 40.46875 116.183594 C 41.121094 116.183594 41.613281 116.0625 41.941406 115.824219 C 42.164063 115.65625 42.273438 115.429688 42.273438 115.152344 C 42.273438 114.960938 42.214844 114.800781 42.097656 114.675781 C 41.96875 114.554688 41.6875 114.445313 41.253906 114.339844 C 39.214844 113.894531 37.925781 113.484375 37.382813 113.113281 C 36.628906 112.597656 36.25 111.882813 36.25 110.964844 C 36.25 110.140625 36.574219 109.445313 37.230469 108.882813 C 37.882813 108.320313 38.894531 108.039063 40.265625 108.039063 C 41.570313 108.039063 42.539063 108.25 43.171875 108.675781 C 43.808594 109.101563 44.246094 109.730469 44.484375 110.5625 L 42.105469 111.003906 C 42.003906 110.632813 41.808594 110.347656 41.523438 110.148438 C 41.242188 109.953125 40.835938 109.851563 40.308594 109.851563 C 39.644531 109.851563 39.167969 109.945313 38.882813 110.132813 C 38.691406 110.261719 38.59375 110.433594 38.59375 110.644531 C 38.59375 110.824219 38.675781 110.976563 38.84375 111.101563 C 39.070313 111.269531 39.859375 111.503906 41.203125 111.8125 C 42.546875 112.117188 43.484375 112.492188 44.015625 112.933594 C 44.542969 113.382813 44.808594 114.007813 44.808594 114.808594 C 44.808594 115.683594 44.441406 116.433594 43.710938 117.0625 C 42.980469 117.691406 41.902344 118.007813 40.46875 118.007813 C 39.171875 118.007813 38.144531 117.742188 37.386719 117.214844 C 36.628906 116.691406 36.132813 115.972656 35.898438 115.070313 "/>
<path style=" stroke:none;fill-rule:nonzero;fill:rgb(13.299561%,11.799622%,12.199402%);fill-opacity:1;" d="M 51.390625 108.253906 L 51.390625 110.265625 L 49.664063 110.265625 L 49.664063 114.109375 C 49.664063 114.886719 49.679688 115.339844 49.714844 115.46875 C 49.746094 115.597656 49.824219 115.703125 49.9375 115.789063 C 50.054688 115.871094 50.199219 115.914063 50.367188 115.914063 C 50.597656 115.914063 50.9375 115.832031 51.378906 115.671875 L 51.597656 117.628906 C 51.007813 117.878906 50.34375 118.003906 49.601563 118.003906 C 49.148438 118.003906 48.738281 117.929688 48.371094 117.777344 C 48.007813 117.625 47.738281 117.425781 47.570313 117.183594 C 47.398438 116.941406 47.28125 116.613281 47.214844 116.203125 C 47.160156 115.910156 47.132813 115.316406 47.132813 114.421875 L 47.132813 110.265625 L 45.972656 110.265625 L 45.972656 108.253906 L 47.132813 108.253906 L 47.132813 106.359375 L 49.664063 104.886719 L 49.664063 108.253906 "/>
<path style=" stroke:none;fill-rule:nonzero;fill:rgb(13.299561%,11.799622%,12.199402%);fill-opacity:1;" d="M 58.804688 112.207031 C 58.789063 111.476563 58.597656 110.921875 58.242188 110.539063 C 57.882813 110.160156 57.445313 109.96875 56.929688 109.96875 C 56.378906 109.96875 55.925781 110.171875 55.566406 110.570313 C 55.207031 110.972656 55.03125 111.515625 55.035156 112.207031 Z M 58.660156 114.757813 L 61.175781 115.179688 C 60.851563 116.101563 60.34375 116.800781 59.644531 117.285156 C 58.949219 117.765625 58.078125 118.007813 57.027344 118.007813 C 55.371094 118.007813 54.144531 117.464844 53.347656 116.382813 C 52.71875 115.511719 52.40625 114.417969 52.40625 113.09375 C 52.40625 111.515625 52.816406 110.277344 53.644531 109.382813 C 54.46875 108.488281 55.515625 108.039063 56.777344 108.039063 C 58.195313 108.039063 59.316406 108.507813 60.136719 109.445313 C 60.957031 110.382813 61.347656 111.816406 61.3125 113.75 L 54.988281 113.75 C 55.007813 114.5 55.210938 115.082031 55.601563 115.496094 C 55.988281 115.914063 56.472656 116.121094 57.054688 116.121094 C 57.453125 116.121094 57.78125 116.011719 58.050781 115.796875 C 58.320313 115.582031 58.527344 115.234375 58.660156 114.757813 "/>
<path style=" stroke:none;fill-rule:nonzero;fill:rgb(13.299561%,11.799622%,12.199402%);fill-opacity:1;" d="M 65.78125 117.792969 L 63.261719 117.792969 L 63.261719 108.253906 L 65.601563 108.253906 L 65.601563 109.609375 C 66.003906 108.96875 66.363281 108.546875 66.683594 108.34375 C 67.007813 108.140625 67.367188 108.039063 67.777344 108.039063 C 68.351563 108.039063 68.90625 108.195313 69.4375 108.515625 L 68.65625 110.714844 C 68.230469 110.4375 67.835938 110.300781 67.472656 110.300781 C 67.117188 110.300781 66.820313 110.398438 66.574219 110.59375 C 66.328125 110.789063 66.136719 111.140625 65.992188 111.648438 C 65.851563 112.15625 65.78125 113.222656 65.78125 114.847656 "/>
<path style=" stroke:none;fill-rule:nonzero;fill:rgb(13.299561%,11.799622%,12.199402%);fill-opacity:1;" d="M 70.523438 108.253906 L 73.046875 108.253906 L 73.046875 117.792969 L 70.523438 117.792969 Z M 70.523438 104.625 L 73.046875 104.625 L 73.046875 106.960938 L 70.523438 106.960938 Z M 70.523438 104.625 "/>
<path style=" stroke:none;fill-rule:nonzero;fill:rgb(13.299561%,11.799622%,12.199402%);fill-opacity:1;" d="M 77.636719 113.023438 C 77.636719 113.96875 77.859375 114.691406 78.308594 115.195313 C 78.757813 115.699219 79.3125 115.949219 79.972656 115.949219 C 80.628906 115.949219 81.179688 115.699219 81.628906 115.195313 C 82.074219 114.691406 82.296875 113.960938 82.296875 113.003906 C 82.296875 112.070313 82.074219 111.351563 81.628906 110.851563 C 81.179688 110.347656 80.628906 110.09375 79.972656 110.09375 C 79.3125 110.09375 78.757813 110.347656 78.308594 110.851563 C 77.859375 111.351563 77.636719 112.078125 77.636719 113.023438 M 75.050781 112.886719 C 75.050781 112.050781 75.257813 111.238281 75.671875 110.453125 C 76.082031 109.667969 76.667969 109.070313 77.425781 108.660156 C 78.183594 108.246094 79.027344 108.039063 79.960938 108.039063 C 81.40625 108.039063 82.585938 108.507813 83.507813 109.445313 C 84.429688 110.378906 84.890625 111.566406 84.890625 112.996094 C 84.890625 114.4375 84.425781 115.632813 83.496094 116.582031 C 82.566406 117.53125 81.390625 118.003906 79.980469 118.003906 C 79.105469 118.003906 78.273438 117.808594 77.480469 117.414063 C 76.6875 117.019531 76.082031 116.441406 75.671875 115.675781 C 75.257813 114.914063 75.050781 113.984375 75.050781 112.886719 "/>
<path style=" stroke:none;fill-rule:nonzero;fill:rgb(13.299561%,11.799622%,12.199402%);fill-opacity:1;" d="M 93.988281 112.816406 C 93.988281 113.835938 94.128906 114.570313 94.410156 115.027344 C 94.816406 115.683594 95.386719 116.011719 96.117188 116.011719 C 96.695313 116.011719 97.191406 115.765625 97.597656 115.273438 C 98.003906 114.777344 98.207031 114.039063 98.207031 113.058594 C 98.207031 111.960938 98.011719 111.175781 97.613281 110.691406 C 97.21875 110.210938 96.714844 109.96875 96.097656 109.96875 C 95.5 109.96875 95 110.207031 94.59375 110.683594 C 94.191406 111.160156 93.988281 111.871094 93.988281 112.816406 M 100.722656 117.792969 L 98.378906 117.792969 L 98.378906 116.390625 C 97.988281 116.933594 97.53125 117.339844 97 117.605469 C 96.472656 117.875 95.9375 118.003906 95.398438 118.003906 C 94.300781 118.003906 93.363281 117.566406 92.582031 116.683594 C 91.800781 115.796875 91.410156 114.566406 91.410156 112.988281 C 91.410156 111.371094 91.792969 110.140625 92.550781 109.300781 C 93.3125 108.460938 94.273438 108.039063 95.433594 108.039063 C 96.5 108.039063 97.421875 108.484375 98.199219 109.367188 L 98.199219 104.625 L 100.722656 104.625 "/>
<path style=" stroke:none;fill-rule:nonzero;fill:rgb(13.299561%,11.799622%,12.199402%);fill-opacity:1;" d="M 108.875 112.207031 C 108.859375 111.476563 108.667969 110.921875 108.3125 110.539063 C 107.949219 110.160156 107.515625 109.96875 107 109.96875 C 106.449219 109.96875 105.992188 110.171875 105.636719 110.570313 C 105.273438 110.972656 105.097656 111.515625 105.105469 112.207031 Z M 108.730469 114.757813 L 111.246094 115.179688 C 110.921875 116.101563 110.414063 116.800781 109.714844 117.285156 C 109.019531 117.765625 108.144531 118.007813 107.097656 118.007813 C 105.441406 118.007813 104.214844 117.464844 103.417969 116.382813 C 102.789063 115.511719 102.472656 114.417969 102.472656 113.09375 C 102.472656 111.515625 102.886719 110.277344 103.714844 109.382813 C 104.539063 108.488281 105.585938 108.039063 106.847656 108.039063 C 108.265625 108.039063 109.386719 108.507813 110.203125 109.445313 C 111.023438 110.382813 111.417969 111.816406 111.382813 113.75 L 105.058594 113.75 C 105.078125 114.5 105.28125 115.082031 105.671875 115.496094 C 106.058594 115.914063 106.542969 116.121094 107.125 116.121094 C 107.519531 116.121094 107.851563 116.011719 108.121094 115.796875 C 108.390625 115.582031 108.59375 115.234375 108.730469 114.757813 "/>
<path style=" stroke:none;fill-rule:nonzero;fill:rgb(13.299561%,11.799622%,12.199402%);fill-opacity:1;" d="M 121.527344 117.792969 L 121.527344 106.851563 L 117.621094 106.851563 L 117.621094 104.625 L 128.082031 104.625 L 128.082031 106.851563 L 124.1875 106.851563 L 124.1875 117.792969 "/>
<path style=" stroke:none;fill-rule:nonzero;fill:rgb(13.299561%,11.799622%,12.199402%);fill-opacity:1;" d="M 131.179688 117.792969 L 128.65625 117.792969 L 128.65625 108.253906 L 131 108.253906 L 131 109.609375 C 131.402344 108.96875 131.761719 108.546875 132.082031 108.34375 C 132.402344 108.140625 132.765625 108.039063 133.175781 108.039063 C 133.75 108.039063 134.304688 108.195313 134.835938 108.515625 L 134.054688 110.714844 C 133.628906 110.4375 133.234375 110.300781 132.867188 110.300781 C 132.515625 110.300781 132.21875 110.398438 131.972656 110.59375 C 131.726563 110.789063 131.53125 111.140625 131.390625 111.648438 C 131.25 112.15625 131.179688 113.222656 131.179688 114.847656 "/>
<path style=" stroke:none;fill-rule:nonzero;fill:rgb(13.299561%,11.799622%,12.199402%);fill-opacity:1;" d="M 141.183594 113.210938 C 140.863281 113.316406 140.351563 113.445313 139.648438 113.597656 C 138.949219 113.746094 138.492188 113.894531 138.277344 114.039063 C 137.945313 114.269531 137.78125 114.566406 137.78125 114.925781 C 137.78125 115.277344 137.914063 115.585938 138.175781 115.84375 C 138.4375 116.101563 138.773438 116.230469 139.183594 116.230469 C 139.636719 116.230469 140.070313 116.078125 140.484375 115.777344 C 140.789063 115.550781 140.988281 115.273438 141.085938 114.941406 C 141.152344 114.730469 141.183594 114.316406 141.183594 113.714844 Z M 137.808594 111.164063 L 135.519531 110.75 C 135.777344 109.828125 136.21875 109.148438 136.847656 108.703125 C 137.476563 108.261719 138.410156 108.039063 139.648438 108.039063 C 140.773438 108.039063 141.613281 108.171875 142.164063 108.4375 C 142.714844 108.707031 143.101563 109.042969 143.328125 109.453125 C 143.550781 109.863281 143.664063 110.617188 143.664063 111.710938 L 143.636719 114.65625 C 143.636719 115.496094 143.675781 116.113281 143.757813 116.511719 C 143.839844 116.910156 143.988281 117.335938 144.210938 117.792969 L 141.714844 117.792969 C 141.648438 117.625 141.566406 117.375 141.472656 117.046875 C 141.429688 116.894531 141.398438 116.796875 141.382813 116.75 C 140.953125 117.167969 140.492188 117.480469 139.996094 117.691406 C 139.507813 117.902344 138.984375 118.007813 138.429688 118.007813 C 137.445313 118.007813 136.671875 117.738281 136.105469 117.207031 C 135.539063 116.675781 135.257813 116 135.257813 115.1875 C 135.257813 114.648438 135.386719 114.167969 135.644531 113.746094 C 135.902344 113.324219 136.261719 113 136.726563 112.773438 C 137.1875 112.550781 137.859375 112.355469 138.730469 112.1875 C 139.914063 111.964844 140.730469 111.757813 141.183594 111.566406 L 141.183594 111.316406 C 141.183594 110.832031 141.0625 110.484375 140.824219 110.277344 C 140.585938 110.074219 140.132813 109.96875 139.46875 109.96875 C 139.019531 109.96875 138.671875 110.058594 138.417969 110.234375 C 138.167969 110.410156 137.964844 110.722656 137.808594 111.164063 "/>
<path style=" stroke:none;fill-rule:nonzero;fill:rgb(13.299561%,11.799622%,12.199402%);fill-opacity:1;" d="M 154.824219 117.792969 L 152.300781 117.792969 L 152.300781 112.925781 C 152.300781 111.894531 152.246094 111.226563 152.140625 110.925781 C 152.03125 110.625 151.855469 110.390625 151.613281 110.222656 C 151.371094 110.054688 151.078125 109.96875 150.738281 109.96875 C 150.300781 109.96875 149.910156 110.089844 149.5625 110.328125 C 149.214844 110.566406 148.976563 110.886719 148.847656 111.28125 C 148.71875 111.675781 148.65625 112.40625 148.65625 113.472656 L 148.65625 117.792969 L 146.132813 117.792969 L 146.132813 108.253906 L 148.476563 108.253906 L 148.476563 109.65625 C 149.308594 108.578125 150.355469 108.039063 151.617188 108.039063 C 152.175781 108.039063 152.683594 108.140625 153.144531 108.339844 C 153.605469 108.539063 153.953125 108.796875 154.191406 109.105469 C 154.429688 109.417969 154.59375 109.773438 154.683594 110.167969 C 154.777344 110.5625 154.824219 111.128906 154.824219 111.863281 "/>
<path style=" stroke:none;fill-rule:nonzero;fill:rgb(13.299561%,11.799622%,12.199402%);fill-opacity:1;" d="M 156.496094 115.070313 L 159.027344 114.683594 C 159.136719 115.175781 159.351563 115.546875 159.683594 115.800781 C 160.011719 116.054688 160.472656 116.183594 161.066406 116.183594 C 161.71875 116.183594 162.210938 116.0625 162.539063 115.824219 C 162.761719 115.65625 162.871094 115.429688 162.871094 115.152344 C 162.871094 114.960938 162.808594 114.800781 162.691406 114.675781 C 162.566406 114.554688 162.285156 114.445313 161.847656 114.339844 C 159.8125 113.894531 158.519531 113.484375 157.976563 113.113281 C 157.222656 112.597656 156.84375 111.882813 156.84375 110.964844 C 156.84375 110.140625 157.171875 109.445313 157.824219 108.882813 C 158.476563 108.320313 159.488281 108.039063 160.859375 108.039063 C 162.164063 108.039063 163.132813 108.25 163.769531 108.675781 C 164.402344 109.101563 164.839844 109.730469 165.078125 110.5625 L 162.699219 111.003906 C 162.597656 110.632813 162.40625 110.347656 162.121094 110.148438 C 161.835938 109.953125 161.429688 109.851563 160.902344 109.851563 C 160.238281 109.851563 159.765625 109.945313 159.476563 110.132813 C 159.285156 110.261719 159.1875 110.433594 159.1875 110.644531 C 159.1875 110.824219 159.273438 110.976563 159.441406 111.101563 C 159.667969 111.269531 160.453125 111.503906 161.796875 111.8125 C 163.140625 112.117188 164.078125 112.492188 164.613281 112.933594 C 165.140625 113.382813 165.402344 114.007813 165.402344 114.808594 C 165.402344 115.683594 165.035156 116.433594 164.308594 117.0625 C 163.578125 117.691406 162.496094 118.007813 161.066406 118.007813 C 159.765625 118.007813 158.738281 117.742188 157.980469 117.214844 C 157.222656 116.691406 156.726563 115.972656 156.496094 115.070313 "/>
<g clip-path="url(#clip1)" clip-rule="nonzero">
<path style=" stroke:none;fill-rule:nonzero;fill:rgb(13.299561%,11.799622%,12.199402%);fill-opacity:1;" d="M 170.035156 112.863281 C 170.035156 113.933594 170.246094 114.722656 170.671875 115.238281 C 171.097656 115.75 171.617188 116.003906 172.226563 116.003906 C 172.8125 116.003906 173.300781 115.769531 173.691406 115.300781 C 174.078125 114.828125 174.273438 114.058594 174.273438 112.988281 C 174.273438 111.988281 174.074219 111.246094 173.671875 110.757813 C 173.269531 110.277344 172.773438 110.03125 172.183594 110.03125 C 171.566406 110.03125 171.054688 110.269531 170.644531 110.746094 C 170.238281 111.222656 170.035156 111.925781 170.035156 112.863281 M 167.539063 108.253906 L 169.890625 108.253906 L 169.890625 109.65625 C 170.199219 109.175781 170.609375 108.789063 171.132813 108.488281 C 171.652344 108.1875 172.230469 108.039063 172.863281 108.039063 C 173.972656 108.039063 174.910156 108.472656 175.683594 109.339844 C 176.457031 110.210938 176.84375 111.417969 176.84375 112.96875 C 176.84375 114.558594 176.453125 115.800781 175.675781 116.679688 C 174.898438 117.566406 173.953125 118.007813 172.847656 118.007813 C 172.320313 118.007813 171.84375 117.902344 171.414063 117.691406 C 170.984375 117.484375 170.535156 117.125 170.0625 116.613281 L 170.0625 121.417969 L 167.539063 121.417969 "/>
</g>
<path style=" stroke:none;fill-rule:nonzero;fill:rgb(13.299561%,11.799622%,12.199402%);fill-opacity:1;" d="M 180.847656 113.023438 C 180.847656 113.96875 181.070313 114.691406 181.519531 115.195313 C 181.96875 115.699219 182.523438 115.949219 183.183594 115.949219 C 183.839844 115.949219 184.390625 115.699219 184.839844 115.195313 C 185.285156 114.691406 185.507813 113.960938 185.507813 113.003906 C 185.507813 112.070313 185.285156 111.351563 184.839844 110.851563 C 184.390625 110.347656 183.839844 110.09375 183.183594 110.09375 C 182.523438 110.09375 181.96875 110.347656 181.519531 110.851563 C 181.070313 111.351563 180.847656 112.078125 180.847656 113.023438 M 178.261719 112.886719 C 178.261719 112.050781 178.46875 111.238281 178.882813 110.453125 C 179.292969 109.667969 179.878906 109.070313 180.636719 108.660156 C 181.394531 108.246094 182.238281 108.039063 183.171875 108.039063 C 184.617188 108.039063 185.796875 108.507813 186.71875 109.445313 C 187.640625 110.378906 188.101563 111.566406 188.101563 112.996094 C 188.101563 114.4375 187.636719 115.632813 186.707031 116.582031 C 185.773438 117.53125 184.601563 118.003906 183.191406 118.003906 C 182.316406 118.003906 181.484375 117.808594 180.691406 117.414063 C 179.898438 117.019531 179.292969 116.441406 178.882813 115.675781 C 178.46875 114.914063 178.261719 113.984375 178.261719 112.886719 "/>
<path style=" stroke:none;fill-rule:nonzero;fill:rgb(13.299561%,11.799622%,12.199402%);fill-opacity:1;" d="M 192.492188 117.792969 L 189.96875 117.792969 L 189.96875 108.253906 L 192.3125 108.253906 L 192.3125 109.609375 C 192.714844 108.96875 193.074219 108.546875 193.394531 108.34375 C 193.714844 108.140625 194.078125 108.039063 194.488281 108.039063 C 195.0625 108.039063 195.613281 108.195313 196.148438 108.515625 L 195.367188 110.714844 C 194.941406 110.4375 194.546875 110.300781 194.179688 110.300781 C 193.828125 110.300781 193.527344 110.398438 193.285156 110.59375 C 193.039063 110.789063 192.84375 111.140625 192.703125 111.648438 C 192.5625 112.15625 192.492188 113.222656 192.492188 114.847656 "/>
<path style=" stroke:none;fill-rule:nonzero;fill:rgb(13.299561%,11.799622%,12.199402%);fill-opacity:1;" d="M 201.605469 108.253906 L 201.605469 110.265625 L 199.882813 110.265625 L 199.882813 114.109375 C 199.882813 114.886719 199.898438 115.339844 199.933594 115.46875 C 199.964844 115.597656 200.039063 115.703125 200.15625 115.789063 C 200.273438 115.871094 200.414063 115.914063 200.585938 115.914063 C 200.816406 115.914063 201.15625 115.832031 201.597656 115.671875 L 201.8125 117.628906 C 201.226563 117.878906 200.5625 118.003906 199.820313 118.003906 C 199.363281 118.003906 198.953125 117.929688 198.589844 117.777344 C 198.226563 117.625 197.957031 117.425781 197.785156 117.183594 C 197.617188 116.941406 197.496094 116.613281 197.433594 116.203125 C 197.378906 115.910156 197.351563 115.316406 197.351563 114.421875 L 197.351563 110.265625 L 196.191406 110.265625 L 196.191406 108.253906 L 197.351563 108.253906 L 197.351563 106.359375 L 199.882813 104.886719 L 199.882813 108.253906 "/>
<path style=" stroke:none;fill-rule:nonzero;fill:rgb(13.299561%,11.799622%,12.199402%);fill-opacity:1;" d="M 209.023438 112.207031 C 209.007813 111.476563 208.816406 110.921875 208.460938 110.539063 C 208.101563 110.160156 207.664063 109.96875 207.148438 109.96875 C 206.597656 109.96875 206.144531 110.171875 205.785156 110.570313 C 205.421875 110.972656 205.246094 111.515625 205.253906 112.207031 Z M 208.878906 114.757813 L 211.394531 115.179688 C 211.070313 116.101563 210.5625 116.800781 209.863281 117.285156 C 209.167969 117.765625 208.296875 118.007813 207.246094 118.007813 C 205.589844 118.007813 204.359375 117.464844 203.566406 116.382813 C 202.9375 115.511719 202.621094 114.417969 202.621094 113.09375 C 202.621094 111.515625 203.035156 110.277344 203.859375 109.382813 C 204.6875 108.488281 205.730469 108.039063 206.996094 108.039063 C 208.414063 108.039063 209.535156 108.507813 210.355469 109.445313 C 211.171875 110.382813 211.566406 111.816406 211.527344 113.75 L 205.210938 113.75 C 205.226563 114.5 205.429688 115.082031 205.816406 115.496094 C 206.210938 115.914063 206.691406 116.121094 207.273438 116.121094 C 207.671875 116.121094 208.003906 116.011719 208.269531 115.796875 C 208.539063 115.582031 208.742188 115.234375 208.878906 114.757813 "/>
<path style=" stroke:none;fill-rule:nonzero;fill:rgb(13.299561%,11.799622%,12.199402%);fill-opacity:1;" d="M 212.695313 115.070313 L 215.230469 114.683594 C 215.339844 115.175781 215.554688 115.546875 215.886719 115.800781 C 216.214844 116.054688 216.675781 116.183594 217.265625 116.183594 C 217.921875 116.183594 218.410156 116.0625 218.738281 115.824219 C 218.964844 115.65625 219.074219 115.429688 219.074219 115.152344 C 219.074219 114.960938 219.011719 114.800781 218.894531 114.675781 C 218.765625 114.554688 218.484375 114.445313 218.050781 114.339844 C 216.011719 113.894531 214.722656 113.484375 214.179688 113.113281 C 213.425781 112.597656 213.046875 111.882813 213.046875 110.964844 C 213.046875 110.140625 213.375 109.445313 214.027344 108.882813 C 214.679688 108.320313 215.691406 108.039063 217.0625 108.039063 C 218.367188 108.039063 219.335938 108.25 219.96875 108.675781 C 220.605469 109.101563 221.042969 109.730469 221.28125 110.5625 L 218.902344 111.003906 C 218.800781 110.632813 218.605469 110.347656 218.324219 110.148438 C 218.039063 109.953125 217.632813 109.851563 217.105469 109.851563 C 216.441406 109.851563 215.96875 109.945313 215.679688 110.132813 C 215.488281 110.261719 215.390625 110.433594 215.390625 110.644531 C 215.390625 110.824219 215.472656 110.976563 215.640625 111.101563 C 215.871094 111.269531 216.65625 111.503906 218 111.8125 C 219.34375 112.117188 220.28125 112.492188 220.8125 112.933594 C 221.34375 113.382813 221.605469 114.007813 221.605469 114.808594 C 221.605469 115.683594 221.238281 116.433594 220.511719 117.0625 C 219.777344 117.691406 218.699219 118.007813 217.265625 118.007813 C 215.96875 118.007813 214.941406 117.742188 214.183594 117.214844 C 213.425781 116.691406 212.929688 115.972656 212.695313 115.070313 "/>
<g clip-path="url(#clip2)" clip-rule="nonzero">
<path style=" stroke:none;fill-rule:nonzero;fill:rgb(13.299561%,11.799622%,12.199402%);fill-opacity:1;" d="M 227.730469 108.253906 L 230.414063 108.253906 L 232.695313 115.027344 L 234.921875 108.253906 L 237.535156 108.253906 L 234.167969 117.433594 L 233.566406 119.09375 C 233.34375 119.648438 233.132813 120.074219 232.933594 120.367188 C 232.730469 120.660156 232.5 120.898438 232.242188 121.082031 C 231.980469 121.261719 231.660156 121.40625 231.28125 121.507813 C 230.898438 121.609375 230.46875 121.660156 229.992188 121.660156 C 229.507813 121.660156 229.03125 121.609375 228.5625 121.507813 L 228.339844 119.535156 C 228.734375 119.609375 229.089844 119.648438 229.40625 119.648438 C 229.996094 119.648438 230.429688 119.476563 230.710938 119.132813 C 230.992188 118.789063 231.207031 118.351563 231.355469 117.816406 "/>
</g>
<path style=" stroke:none;fill-rule:nonzero;fill:rgb(13.299561%,11.799622%,12.199402%);fill-opacity:1;" d="M 252.699219 112.953125 L 255.277344 113.765625 C 254.882813 115.207031 254.226563 116.269531 253.308594 116.96875 C 252.386719 117.667969 251.222656 118.015625 249.808594 118.015625 C 248.0625 118.015625 246.625 117.417969 245.5 116.222656 C 244.375 115.03125 243.8125 113.394531 243.8125 111.324219 C 243.8125 109.132813 244.378906 107.433594 245.507813 106.21875 C 246.640625 105.007813 248.128906 104.402344 249.972656 104.402344 C 251.582031 104.402344 252.890625 104.878906 253.894531 105.828125 C 254.492188 106.390625 254.941406 107.203125 255.242188 108.253906 L 252.609375 108.882813 C 252.457031 108.199219 252.132813 107.660156 251.636719 107.265625 C 251.144531 106.871094 250.542969 106.675781 249.835938 106.675781 C 248.859375 106.675781 248.070313 107.023438 247.460938 107.722656 C 246.851563 108.425781 246.550781 109.558594 246.550781 111.128906 C 246.550781 112.792969 246.847656 113.976563 247.449219 114.683594 C 248.046875 115.390625 248.824219 115.742188 249.78125 115.742188 C 250.488281 115.742188 251.097656 115.519531 251.605469 115.070313 C 252.113281 114.621094 252.480469 113.914063 252.699219 112.953125 "/>
<path style=" stroke:none;fill-rule:nonzero;fill:rgb(13.299561%,11.799622%,12.199402%);fill-opacity:1;" d="M 259.542969 113.023438 C 259.542969 113.96875 259.769531 114.691406 260.214844 115.195313 C 260.664063 115.699219 261.21875 115.949219 261.878906 115.949219 C 262.535156 115.949219 263.089844 115.699219 263.535156 115.195313 C 263.980469 114.691406 264.203125 113.960938 264.203125 113.003906 C 264.203125 112.070313 263.980469 111.351563 263.535156 110.851563 C 263.089844 110.347656 262.535156 110.09375 261.878906 110.09375 C 261.21875 110.09375 260.664063 110.347656 260.214844 110.851563 C 259.769531 111.351563 259.542969 112.078125 259.542969 113.023438 M 256.957031 112.886719 C 256.957031 112.050781 257.164063 111.238281 257.574219 110.453125 C 257.988281 109.667969 258.574219 109.070313 259.332031 108.660156 C 260.089844 108.246094 260.933594 108.039063 261.867188 108.039063 C 263.3125 108.039063 264.492188 108.507813 265.414063 109.445313 C 266.339844 110.378906 266.796875 111.566406 266.796875 112.996094 C 266.796875 114.4375 266.332031 115.632813 265.402344 116.582031 C 264.472656 117.53125 263.300781 118.003906 261.886719 118.003906 C 261.011719 118.003906 260.179688 117.808594 259.386719 117.414063 C 258.59375 117.019531 257.988281 116.441406 257.574219 115.675781 C 257.164063 114.914063 256.957031 113.984375 256.957031 112.886719 "/>
<path style=" stroke:none;fill-rule:nonzero;fill:rgb(13.299561%,11.799622%,12.199402%);fill-opacity:1;" d="M 268.585938 108.253906 L 270.910156 108.253906 L 270.910156 109.558594 C 271.742188 108.546875 272.734375 108.039063 273.882813 108.039063 C 274.492188 108.039063 275.023438 108.164063 275.472656 108.417969 C 275.921875 108.667969 276.289063 109.046875 276.578125 109.558594 C 276.996094 109.046875 277.449219 108.667969 277.933594 108.417969 C 278.417969 108.164063 278.9375 108.039063 279.484375 108.039063 C 280.1875 108.039063 280.777344 108.183594 281.265625 108.464844 C 281.746094 108.75 282.109375 109.167969 282.351563 109.71875 C 282.523438 110.125 282.609375 110.785156 282.609375 111.695313 L 282.609375 117.792969 L 280.089844 117.792969 L 280.089844 112.339844 C 280.089844 111.394531 280 110.785156 279.828125 110.507813 C 279.59375 110.148438 279.234375 109.96875 278.75 109.96875 C 278.398438 109.96875 278.0625 110.078125 277.753906 110.292969 C 277.441406 110.507813 277.21875 110.824219 277.078125 111.238281 C 276.941406 111.65625 276.871094 112.3125 276.871094 113.210938 L 276.871094 117.792969 L 274.351563 117.792969 L 274.351563 112.566406 C 274.351563 111.636719 274.304688 111.039063 274.214844 110.769531 C 274.125 110.5 273.984375 110.296875 273.796875 110.167969 C 273.609375 110.035156 273.355469 109.96875 273.03125 109.96875 C 272.640625 109.96875 272.289063 110.074219 271.980469 110.285156 C 271.667969 110.492188 271.445313 110.796875 271.3125 111.191406 C 271.175781 111.585938 271.105469 112.242188 271.105469 113.15625 L 271.105469 117.792969 L 268.585938 117.792969 "/>
<path style=" stroke:none;fill-rule:nonzero;fill:rgb(13.299561%,11.799622%,12.199402%);fill-opacity:1;" d="M 291.402344 117.792969 L 291.402344 116.363281 C 291.054688 116.871094 290.597656 117.273438 290.03125 117.566406 C 289.464844 117.859375 288.871094 118.007813 288.242188 118.007813 C 287.601563 118.007813 287.027344 117.867188 286.515625 117.585938 C 286.007813 117.304688 285.640625 116.910156 285.414063 116.398438 C 285.183594 115.890625 285.070313 115.1875 285.070313 114.289063 L 285.070313 108.253906 L 287.59375 108.253906 L 287.59375 112.636719 C 287.59375 113.976563 287.640625 114.800781 287.734375 115.101563 C 287.828125 115.402344 287.996094 115.644531 288.242188 115.820313 C 288.488281 115.996094 288.796875 116.085938 289.175781 116.085938 C 289.605469 116.085938 289.992188 115.96875 290.335938 115.730469 C 290.675781 115.492188 290.90625 115.199219 291.035156 114.851563 C 291.160156 114.5 291.222656 113.644531 291.222656 112.277344 L 291.222656 108.253906 L 293.746094 108.253906 L 293.746094 117.792969 "/>
<path style=" stroke:none;fill-rule:nonzero;fill:rgb(13.299561%,11.799622%,12.199402%);fill-opacity:1;" d="M 305.03125 117.792969 L 302.511719 117.792969 L 302.511719 112.925781 C 302.511719 111.894531 302.457031 111.226563 302.347656 110.925781 C 302.238281 110.625 302.066406 110.390625 301.824219 110.222656 C 301.582031 110.054688 301.289063 109.96875 300.945313 109.96875 C 300.511719 109.96875 300.117188 110.089844 299.769531 110.328125 C 299.425781 110.566406 299.1875 110.886719 299.058594 111.28125 C 298.929688 111.675781 298.863281 112.40625 298.863281 113.472656 L 298.863281 117.792969 L 296.339844 117.792969 L 296.339844 108.253906 L 298.683594 108.253906 L 298.683594 109.65625 C 299.515625 108.578125 300.5625 108.039063 301.828125 108.039063 C 302.386719 108.039063 302.890625 108.140625 303.355469 108.339844 C 303.816406 108.539063 304.164063 108.796875 304.398438 109.105469 C 304.636719 109.417969 304.800781 109.773438 304.894531 110.167969 C 304.984375 110.5625 305.03125 111.128906 305.03125 111.863281 "/>
<path style=" stroke:none;fill-rule:nonzero;fill:rgb(13.299561%,11.799622%,12.199402%);fill-opacity:1;" d="M 307.59375 108.253906 L 310.113281 108.253906 L 310.113281 117.792969 L 307.59375 117.792969 Z M 307.59375 104.625 L 310.113281 104.625 L 310.113281 106.960938 L 307.59375 106.960938 Z M 307.59375 104.625 "/>
<path style=" stroke:none;fill-rule:nonzero;fill:rgb(13.299561%,11.799622%,12.199402%);fill-opacity:1;" d="M 321.015625 111.074219 L 318.527344 111.523438 C 318.445313 111.027344 318.253906 110.652344 317.957031 110.402344 C 317.660156 110.148438 317.277344 110.023438 316.804688 110.023438 C 316.175781 110.023438 315.675781 110.242188 315.300781 110.675781 C 314.925781 111.109375 314.738281 111.832031 314.738281 112.851563 C 314.738281 113.984375 314.929688 114.78125 315.308594 115.25 C 315.691406 115.71875 316.199219 115.949219 316.839844 115.949219 C 317.320313 115.949219 317.710938 115.8125 318.015625 115.539063 C 318.324219 115.269531 318.535156 114.800781 318.664063 114.136719 L 321.140625 114.558594 C 320.882813 115.695313 320.390625 116.554688 319.660156 117.136719 C 318.929688 117.714844 317.953125 118.007813 316.722656 118.007813 C 315.328125 118.007813 314.21875 117.566406 313.386719 116.6875 C 312.558594 115.808594 312.144531 114.589844 312.144531 113.03125 C 312.144531 111.457031 312.5625 110.230469 313.394531 109.355469 C 314.226563 108.476563 315.351563 108.039063 316.769531 108.039063 C 317.929688 108.039063 318.855469 108.289063 319.539063 108.789063 C 320.226563 109.289063 320.71875 110.050781 321.015625 111.074219 "/>
<path style=" stroke:none;fill-rule:nonzero;fill:rgb(13.299561%,11.799622%,12.199402%);fill-opacity:1;" d="M 328.191406 113.210938 C 327.867188 113.316406 327.355469 113.445313 326.65625 113.597656 C 325.953125 113.746094 325.496094 113.894531 325.28125 114.039063 C 324.953125 114.269531 324.789063 114.566406 324.789063 114.925781 C 324.789063 115.277344 324.921875 115.585938 325.183594 115.84375 C 325.445313 116.101563 325.78125 116.230469 326.1875 116.230469 C 326.644531 116.230469 327.078125 116.078125 327.492188 115.777344 C 327.796875 115.550781 327.996094 115.273438 328.09375 114.941406 C 328.15625 114.730469 328.191406 114.316406 328.191406 113.714844 Z M 324.816406 111.164063 L 322.523438 110.75 C 322.78125 109.828125 323.226563 109.148438 323.855469 108.703125 C 324.480469 108.261719 325.417969 108.039063 326.65625 108.039063 C 327.78125 108.039063 328.617188 108.171875 329.171875 108.4375 C 329.71875 108.707031 330.109375 109.042969 330.332031 109.453125 C 330.558594 109.863281 330.671875 110.617188 330.671875 111.710938 L 330.640625 114.65625 C 330.640625 115.496094 330.683594 116.113281 330.761719 116.511719 C 330.84375 116.910156 330.996094 117.335938 331.21875 117.792969 L 328.71875 117.792969 C 328.65625 117.625 328.574219 117.375 328.476563 117.046875 C 328.4375 116.894531 328.40625 116.796875 328.386719 116.75 C 327.957031 117.167969 327.496094 117.480469 327.003906 117.691406 C 326.515625 117.902344 325.992188 118.007813 325.433594 118.007813 C 324.453125 118.007813 323.679688 117.738281 323.113281 117.207031 C 322.546875 116.675781 322.265625 116 322.265625 115.1875 C 322.265625 114.648438 322.394531 114.167969 322.652344 113.746094 C 322.90625 113.324219 323.269531 113 323.734375 112.773438 C 324.195313 112.550781 324.867188 112.355469 325.738281 112.1875 C 326.917969 111.964844 327.734375 111.757813 328.191406 111.566406 L 328.191406 111.316406 C 328.191406 110.832031 328.070313 110.484375 327.832031 110.277344 C 327.59375 110.074219 327.140625 109.96875 326.476563 109.96875 C 326.027344 109.96875 325.675781 110.058594 325.425781 110.234375 C 325.171875 110.410156 324.96875 110.722656 324.816406 111.164063 "/>
<path style=" stroke:none;fill-rule:nonzero;fill:rgb(13.299561%,11.799622%,12.199402%);fill-opacity:1;" d="M 341.472656 111.074219 L 338.984375 111.523438 C 338.902344 111.027344 338.710938 110.652344 338.414063 110.402344 C 338.117188 110.148438 337.734375 110.023438 337.261719 110.023438 C 336.632813 110.023438 336.132813 110.242188 335.757813 110.675781 C 335.382813 111.109375 335.195313 111.832031 335.195313 112.851563 C 335.195313 113.984375 335.386719 114.78125 335.765625 115.25 C 336.144531 115.71875 336.65625 115.949219 337.296875 115.949219 C 337.777344 115.949219 338.167969 115.8125 338.472656 115.539063 C 338.777344 115.269531 338.992188 114.800781 339.117188 114.136719 L 341.597656 114.558594 C 341.339844 115.695313 340.847656 116.554688 340.117188 117.136719 C 339.386719 117.714844 338.40625 118.007813 337.179688 118.007813 C 335.785156 118.007813 334.671875 117.566406 333.84375 116.6875 C 333.015625 115.808594 332.601563 114.589844 332.601563 113.03125 C 332.601563 111.457031 333.015625 110.230469 333.847656 109.355469 C 334.679688 108.476563 335.804688 108.039063 337.226563 108.039063 C 338.386719 108.039063 339.308594 108.289063 339.996094 108.789063 C 340.679688 109.289063 341.171875 110.050781 341.472656 111.074219 "/>
<path style=" stroke:none;fill-rule:nonzero;fill:rgb(13.299561%,11.799622%,12.199402%);fill-opacity:1;" d="M 343.386719 108.253906 L 345.90625 108.253906 L 345.90625 117.792969 L 343.386719 117.792969 Z M 343.386719 104.625 L 345.90625 104.625 L 345.90625 106.960938 L 343.386719 106.960938 Z M 343.386719 104.625 "/>
<path style=" stroke:none;fill-rule:nonzero;fill:rgb(13.299561%,11.799622%,12.199402%);fill-opacity:1;" d="M 350.496094 113.023438 C 350.496094 113.96875 350.722656 114.691406 351.171875 115.195313 C 351.621094 115.699219 352.171875 115.949219 352.832031 115.949219 C 353.488281 115.949219 354.042969 115.699219 354.488281 115.195313 C 354.933594 114.691406 355.15625 113.960938 355.15625 113.003906 C 355.15625 112.070313 354.933594 111.351563 354.488281 110.851563 C 354.042969 110.347656 353.488281 110.09375 352.832031 110.09375 C 352.171875 110.09375 351.621094 110.347656 351.171875 110.851563 C 350.722656 111.351563 350.496094 112.078125 350.496094 113.023438 M 347.910156 112.886719 C 347.910156 112.050781 348.117188 111.238281 348.53125 110.453125 C 348.941406 109.667969 349.527344 109.070313 350.285156 108.660156 C 351.042969 108.246094 351.890625 108.039063 352.824219 108.039063 C 354.265625 108.039063 355.449219 108.507813 356.371094 109.445313 C 357.292969 110.378906 357.753906 111.566406 357.753906 112.996094 C 357.753906 114.4375 357.285156 115.632813 356.355469 116.582031 C 355.425781 117.53125 354.253906 118.003906 352.839844 118.003906 C 351.96875 118.003906 351.132813 117.808594 350.339844 117.414063 C 349.546875 117.019531 348.941406 116.441406 348.53125 115.675781 C 348.117188 114.914063 347.910156 113.984375 347.910156 112.886719 "/>
<path style=" stroke:none;fill-rule:nonzero;fill:rgb(13.299561%,11.799622%,12.199402%);fill-opacity:1;" d="M 368.402344 117.792969 L 365.878906 117.792969 L 365.878906 112.925781 C 365.878906 111.894531 365.824219 111.226563 365.71875 110.925781 C 365.609375 110.625 365.433594 110.390625 365.191406 110.222656 C 364.949219 110.054688 364.65625 109.96875 364.316406 109.96875 C 363.878906 109.96875 363.488281 110.089844 363.140625 110.328125 C 362.792969 110.566406 362.554688 110.886719 362.425781 111.28125 C 362.296875 111.675781 362.234375 112.40625 362.234375 113.472656 L 362.234375 117.792969 L 359.710938 117.792969 L 359.710938 108.253906 L 362.054688 108.253906 L 362.054688 109.65625 C 362.886719 108.578125 363.933594 108.039063 365.195313 108.039063 C 365.753906 108.039063 366.261719 108.140625 366.722656 108.339844 C 367.183594 108.539063 367.53125 108.796875 367.769531 109.105469 C 368.007813 109.417969 368.171875 109.773438 368.261719 110.167969 C 368.355469 110.5625 368.402344 111.128906 368.402344 111.863281 "/>
<path style=" stroke:none;fill-rule:nonzero;fill:rgb(13.299561%,11.799622%,12.199402%);fill-opacity:1;" d="M 376.628906 112.207031 C 376.609375 111.476563 376.421875 110.921875 376.0625 110.539063 C 375.703125 110.160156 375.265625 109.96875 374.75 109.96875 C 374.199219 109.96875 373.746094 110.171875 373.386719 110.570313 C 373.027344 110.972656 372.851563 111.515625 372.855469 112.207031 Z M 376.484375 114.757813 L 378.996094 115.179688 C 378.675781 116.101563 378.164063 116.800781 377.464844 117.285156 C 376.769531 117.765625 375.898438 118.007813 374.851563 118.007813 C 373.191406 118.007813 371.964844 117.464844 371.167969 116.382813 C 370.539063 115.511719 370.226563 114.417969 370.226563 113.09375 C 370.226563 111.515625 370.640625 110.277344 371.464844 109.382813 C 372.289063 108.488281 373.335938 108.039063 374.597656 108.039063 C 376.015625 108.039063 377.136719 108.507813 377.957031 109.445313 C 378.773438 110.382813 379.167969 111.816406 379.132813 113.75 L 372.8125 113.75 C 372.828125 114.5 373.03125 115.082031 373.421875 115.496094 C 373.8125 115.914063 374.296875 116.121094 374.878906 116.121094 C 375.269531 116.121094 375.605469 116.011719 375.871094 115.796875 C 376.144531 115.582031 376.347656 115.234375 376.484375 114.757813 "/>
<g clip-path="url(#clip3)" clip-rule="nonzero">
<path style=" stroke:none;fill-rule:nonzero;fill:rgb(13.299561%,11.799622%,12.199402%);fill-opacity:1;" d="M 380.300781 115.070313 L 382.832031 114.683594 C 382.941406 115.175781 383.15625 115.546875 383.488281 115.800781 C 383.816406 116.054688 384.277344 116.183594 384.871094 116.183594 C 385.523438 116.183594 386.011719 116.0625 386.34375 115.824219 C 386.5625 115.65625 386.675781 115.429688 386.675781 115.152344 C 386.675781 114.960938 386.613281 114.800781 386.496094 114.675781 C 386.367188 114.554688 386.089844 114.445313 385.652344 114.339844 C 383.613281 113.894531 382.324219 113.484375 381.78125 113.113281 C 381.027344 112.597656 380.648438 111.882813 380.648438 110.964844 C 380.648438 110.140625 380.976563 109.445313 381.628906 108.882813 C 382.28125 108.320313 383.292969 108.039063 384.664063 108.039063 C 385.96875 108.039063 386.9375 108.25 387.570313 108.675781 C 388.207031 109.101563 388.644531 109.730469 388.882813 110.5625 L 386.503906 111.003906 C 386.402344 110.632813 386.210938 110.347656 385.925781 110.148438 C 385.640625 109.953125 385.234375 109.851563 384.707031 109.851563 C 384.042969 109.851563 383.566406 109.945313 383.28125 110.132813 C 383.089844 110.261719 382.992188 110.433594 382.992188 110.644531 C 382.992188 110.824219 383.078125 110.976563 383.242188 111.101563 C 383.472656 111.269531 384.257813 111.503906 385.601563 111.8125 C 386.945313 112.117188 387.882813 112.492188 388.417969 112.933594 C 388.945313 113.382813 389.207031 114.007813 389.207031 114.808594 C 389.207031 115.683594 388.84375 116.433594 388.113281 117.0625 C 387.382813 117.691406 386.300781 118.007813 384.871094 118.007813 C 383.570313 118.007813 382.542969 117.742188 381.785156 117.214844 C 381.027344 116.691406 380.53125 115.972656 380.300781 115.070313 "/>
</g>
</g>
</svg>
